<svg width="12" height="13" viewBox="0 0 12 13" fill="none" xmlns="http://www.w3.org/2000/svg">
<path d="M11.6371 11.5261V12.2283H10.9349" stroke="#2D2D2D" stroke-width="0.936284" stroke-linecap="round" stroke-linejoin="round"/>
<path d="M9.52506 12.5794H8.11256C7.92115 12.5794 7.76395 12.4222 7.76395 12.2283C7.76395 12.0344 7.92115 11.8772 8.11256 11.8772H9.52506C9.71896 11.8772 9.87616 12.0344 9.87616 12.2283C9.87616 12.4222 9.71896 12.5794 9.52506 12.5794ZM6.70506 12.5794H5.99625C5.80234 12.5794 5.64514 12.4222 5.64514 12.2283C5.64514 12.0344 5.80234 11.8772 5.99625 11.8772H6.70506C6.89897 11.8772 7.05617 12.0344 7.05617 12.2283C7.05617 12.4222 6.89899 12.5794 6.70506 12.5794Z" fill="#2D2D2D" stroke="#2D2D2D" stroke-width="0.0312095" stroke-miterlimit="10"/>
<path d="M1.06501 12.2283H0.362793V11.5261" stroke="#2D2D2D" stroke-width="0.936284" stroke-linecap="round" stroke-linejoin="round"/>
<path d="M0.362825 7.64727C0.168921 7.64727 0.0117188 7.49007 0.0117188 7.29616V5.88616C0.0117188 5.69226 0.168921 5.53506 0.362825 5.53506C0.55673 5.53506 0.713932 5.69226 0.713932 5.88616V7.29616C0.713932 7.49007 0.55673 7.64727 0.362825 7.64727ZM0.362825 4.8273C0.168921 4.8273 0.0117188 4.6701 0.0117188 4.47619V3.06619C0.0117188 2.87229 0.168921 2.71259 0.362825 2.71259C0.55673 2.71259 0.713932 2.87229 0.713932 3.06619V4.47619C0.713932 4.6701 0.55673 4.8273 0.362825 4.8273Z" fill="#2D2D2D" stroke="#2D2D2D" stroke-width="0.0312095" stroke-miterlimit="10"/>
<path d="M0.362793 1.65607V0.953857H1.06501" stroke="#2D2D2D" stroke-width="0.936284" stroke-linecap="round" stroke-linejoin="round"/>
<path d="M9.52497 1.305H8.11497C7.92107 1.305 7.76387 1.14779 7.76387 0.95389C7.76387 0.759985 7.92107 0.602783 8.11497 0.602783H9.52497C9.71887 0.602783 9.87608 0.759985 9.87608 0.95389C9.87608 1.14779 9.71887 1.305 9.52497 1.305ZM6.70498 1.305H5.29498C5.10107 1.305 4.94387 1.14779 4.94387 0.95389C4.94387 0.759985 5.10107 0.602783 5.29498 0.602783H6.70498C6.89888 0.602783 7.05608 0.759985 7.05608 0.95389C7.05608 1.14779 6.8989 1.305 6.70498 1.305ZM3.885 1.305H2.47501C2.2811 1.305 2.1239 1.14779 2.1239 0.95389C2.1239 0.759985 2.2811 0.602783 2.47501 0.602783H3.885C4.07891 0.602783 4.23611 0.759985 4.23611 0.95389C4.23611 1.14779 4.07891 1.305 3.885 1.305Z" fill="#2D2D2D" stroke="#2D2D2D" stroke-width="0.0312095" stroke-miterlimit="10"/>
<path d="M10.9349 0.953857H11.6371V1.65607" stroke="#2D2D2D" stroke-width="0.936284" stroke-linecap="round" stroke-linejoin="round"/>
<path d="M11.6372 10.4673C11.4433 10.4673 11.2861 10.3101 11.2861 10.1162V8.70616C11.2861 8.51225 11.4433 8.35505 11.6372 8.35505C11.8311 8.35505 11.9883 8.51225 11.9883 8.70616V10.1162C11.9883 10.3101 11.8311 10.4673 11.6372 10.4673ZM11.6372 7.64727C11.4433 7.64727 11.2861 7.49007 11.2861 7.29616V5.88616C11.2861 5.69226 11.4433 5.53506 11.6372 5.53506C11.8311 5.53506 11.9883 5.69226 11.9883 5.88616V7.29616C11.9883 7.49007 11.8311 7.64727 11.6372 7.64727ZM11.6372 4.8273C11.4433 4.8273 11.2861 4.6701 11.2861 4.47619V3.06619C11.2861 2.87229 11.4433 2.71259 11.6372 2.71259C11.8311 2.71259 11.9883 2.87229 11.9883 3.06619V4.47619C11.9883 4.6701 11.8311 4.8273 11.6372 4.8273Z" fill="#2D2D2D" stroke="#2D2D2D" stroke-width="0.0312095" stroke-miterlimit="10"/>
<path d="M9.89073 2.70037L5.99618 6.59491M8.66265 2.69702H9.89408V3.92845M0.362915 6.59491H5.99616V12.2282H0.362915V6.59491Z" stroke="#2D2D2D" stroke-width="0.936284" stroke-miterlimit="10" stroke-linecap="round" stroke-linejoin="round"/>
</svg>
