<svg width="12" height="13" viewBox="0 0 12 13" fill="none" xmlns="http://www.w3.org/2000/svg">
<path d="M11.6497 7.12012H4.71319C4.69025 6.94825 4.54395 6.81557 4.36644 6.81557H2.47136C2.29384 6.81557 2.14755 6.94823 2.1246 7.12012H1.4234V1.91959C1.4234 1.57473 1.70289 1.29419 2.04646 1.29419C2.31297 1.29419 2.54994 1.46427 2.63594 1.71702L2.7624 2.09031C2.14363 2.44358 1.82188 3.18948 2.02952 3.90476L2.13355 4.26326C2.18235 4.44535 2.3882 4.55895 2.5678 4.50246L4.91665 3.81551C4.96086 3.80256 5.00208 3.78101 5.03796 3.75211C5.07383 3.72321 5.10366 3.68753 5.12574 3.64709C5.17044 3.5653 5.18093 3.46914 5.15494 3.37962L5.05088 3.02113C4.8405 2.29642 4.15489 1.8381 3.43353 1.88739L3.29898 1.49022C3.11598 0.952399 2.61264 0.591064 2.04646 0.591064C1.31664 0.591064 0.722903 1.18703 0.722903 1.91959V7.12012H0.350249C0.15682 7.12012 0 7.27752 0 7.47168V8.6326C0 8.79397 0.108281 8.92993 0.255913 8.97127V9.98393C0.255913 10.8019 0.772544 11.501 1.49545 11.7699L1.31407 12.0459C1.20752 12.208 1.2521 12.426 1.41356 12.5329C1.47061 12.5709 1.53759 12.5911 1.6061 12.5911C1.71986 12.5911 1.83145 12.5355 1.89876 12.4331L2.25705 11.8879H9.74291L10.1012 12.4331C10.133 12.4816 10.1764 12.5215 10.2275 12.5491C10.2786 12.5767 10.3358 12.5911 10.3939 12.5911C10.4624 12.5911 10.5293 12.5709 10.5864 12.5329C10.7479 12.426 10.7924 12.208 10.6859 12.0459L10.5045 11.7699C11.2274 11.501 11.744 10.8019 11.744 9.98393V8.97127C11.8178 8.95044 11.8827 8.90607 11.9289 8.84493C11.9751 8.78379 12 8.70923 12 8.6326V7.47168C12 7.27752 11.8431 7.12012 11.6497 7.12012ZM4.37834 3.21781L4.38444 3.23879L2.70815 3.72905L2.70205 3.70808C2.56738 3.24418 2.83384 2.75682 3.296 2.62166C3.37519 2.59842 3.45729 2.5866 3.53982 2.58657C3.91798 2.58657 4.26737 2.83545 4.37834 3.21781ZM2.82161 7.51869H4.01619V9.79133H2.82161V7.51869ZM11.2995 8.39314C11.1447 8.50349 11.0435 8.68484 11.0435 8.88948V9.98393C11.0435 10.6461 10.5068 11.1848 9.84718 11.1848H2.15277C1.4931 11.1848 0.95641 10.6461 0.95641 9.98393V8.88948C0.95641 8.68487 0.855254 8.50349 0.700497 8.39314V7.82324H2.12113V10.1429C2.12113 10.337 2.27795 10.4944 2.47138 10.4944H4.36646C4.55989 10.4944 4.71671 10.337 4.71671 10.1429V7.82324H11.2995V8.39314H11.2995Z" fill="#2D2D2D"/>
</svg>
