<svg width="12" height="13" viewBox="0 0 12 13" fill="none" xmlns="http://www.w3.org/2000/svg">
<path d="M11.2548 6.30422V3.27389C11.2548 2.9309 10.9758 2.65183 10.6328 2.65183H8.52302C8.50657 2.65183 8.49171 2.64042 8.4852 2.62272C8.10302 1.587 7.10428 0.891113 6 0.891113C4.89572 0.891113 3.89698 1.587 3.5148 2.62272C3.50829 2.64039 3.49341 2.65183 3.47695 2.65183H1.36723C1.02424 2.65183 0.745172 2.93088 0.745172 3.27389V6.30422C0.317414 6.41282 0 6.80109 0 7.26218V11.7057C0 12.0284 0.2625 12.2909 0.585141 12.2909H1.92427C2.24691 12.2909 2.50941 12.0284 2.50941 11.7057V10.726H9.49062V11.7057C9.49062 12.0284 9.75309 12.2909 10.0758 12.2909H11.4149C11.7375 12.2909 12 12.0284 12 11.7057V7.26218C12 6.80109 11.6826 6.41282 11.2548 6.30422ZM0.703125 10.0228V9.29882H11.2969V10.0228H0.703125ZM1.4483 3.35496H3.47695C3.78626 3.35496 4.06657 3.15853 4.17445 2.86614C4.45519 2.10539 5.1888 1.59424 6 1.59424C6.8112 1.59424 7.54484 2.10539 7.82555 2.8661C7.93341 3.1585 8.21372 3.35496 8.52305 3.35496H10.5517V6.27389H8.33484V4.86082C8.33484 4.45553 8.00513 4.12582 7.59984 4.12582H4.40018C3.9949 4.12582 3.66518 4.45553 3.66518 4.86082V6.27389H1.4483V3.35496ZM7.63172 6.27389H4.36828V4.86082C4.36828 4.84324 4.38258 4.82894 4.40016 4.82894H7.59984C7.61742 4.82894 7.63172 4.84324 7.63172 4.86082V6.27389ZM0.988289 6.97701H11.0117C11.1689 6.97701 11.2969 7.10493 11.2969 7.26218V8.5957H0.703125V7.26218C0.703125 7.10493 0.831047 6.97701 0.988289 6.97701ZM1.80626 11.5878H0.703125V10.726H1.80626V11.5878ZM10.1937 11.5878V10.726H11.2969V11.5878H10.1937Z" fill="#2D2D2D"/>
</svg>
