<svg width="24" height="25" viewBox="0 0 24 25" fill="none" xmlns="http://www.w3.org/2000/svg">
<path d="M21.8906 3.8457H2.10938C0.943922 3.8457 0 4.79548 0 5.95508V18.6113C0 19.7778 0.950859 20.7207 2.10938 20.7207H21.8906C23.0463 20.7207 24 19.7818 24 18.6113V5.95508C24 4.79755 23.0598 3.8457 21.8906 3.8457ZM21.5952 5.25195L13.4916 13.3129C13.0931 13.7113 12.5634 13.9307 12 13.9307C11.4366 13.9307 10.9069 13.7113 10.5071 13.3116L2.40478 5.25195H21.5952ZM1.40625 18.3251V6.24219L7.48303 12.287L1.40625 18.3251ZM2.40567 19.3145L8.48006 13.2787L9.51408 14.3073C10.1781 14.9713 11.061 15.337 12 15.337C12.939 15.337 13.8219 14.9713 14.4846 14.3086L15.5199 13.2787L21.5943 19.3145H2.40567ZM22.5938 18.3251L16.517 12.287L22.5938 6.24219V18.3251Z" fill="#2D2D2D"/>
</svg>
