<svg width="16" height="12" viewBox="0 0 16 12" fill="none" xmlns="http://www.w3.org/2000/svg">
<path d="M8.53128 10.4513H7.46878C7.40248 10.4513 7.33889 10.425 7.29201 10.3781C7.24512 10.3312 7.21878 10.2676 7.21878 10.2013V7.38006H6.49378C6.44894 7.38006 6.40492 7.368 6.36633 7.34514C6.32775 7.32227 6.29603 7.28946 6.27449 7.25012C6.25295 7.21078 6.24239 7.16638 6.24392 7.12156C6.24544 7.07674 6.259 7.03315 6.28316 6.99537L7.78941 4.63693C7.81201 4.60158 7.84316 4.57248 7.87997 4.55233C7.91678 4.53217 7.95807 4.52161 8.00003 4.52161C8.042 4.52161 8.08329 4.53217 8.1201 4.55233C8.15691 4.57248 8.18805 4.60158 8.21066 4.63693L9.71691 6.99537C9.74107 7.03315 9.75462 7.07674 9.75615 7.12156C9.75767 7.16638 9.74711 7.21078 9.72557 7.25012C9.70404 7.28946 9.67231 7.32227 9.63373 7.34514C9.59515 7.368 9.55113 7.38006 9.50628 7.38006H8.78128V10.2013C8.78128 10.2676 8.75494 10.3312 8.70806 10.3781C8.66118 10.425 8.59759 10.4513 8.53128 10.4513ZM7.71878 9.95131H8.28128V7.13006C8.28128 7.06375 8.30762 7.00016 8.35451 6.95328C8.40139 6.9064 8.46498 6.88006 8.53128 6.88006H9.05003L8.00003 5.23599L6.95003 6.88006H7.46878C7.53509 6.88006 7.59868 6.9064 7.64556 6.95328C7.69244 7.00016 7.71878 7.06375 7.71878 7.13006V9.95131Z" fill="#757575"/>
<path d="M0.96875 10.691C0.902446 10.691 0.838857 10.6647 0.791973 10.6178C0.745089 10.5709 0.71875 10.5073 0.71875 10.441V3.06852C0.719163 2.73116 0.853363 2.40773 1.09191 2.16918C1.33046 1.93063 1.65389 1.79643 1.99125 1.79602H12.2725C12.6099 1.79643 12.9333 1.93063 13.1718 2.16918C13.4104 2.40773 13.5446 2.73116 13.545 3.06852V3.50946C13.545 3.57576 13.5187 3.63935 13.4718 3.68623C13.4249 3.73312 13.3613 3.75946 13.295 3.75946C13.2287 3.75946 13.1651 3.73312 13.1182 3.68623C13.0713 3.63935 13.045 3.57576 13.045 3.50946V3.06852C13.0448 2.86372 12.9633 2.66737 12.8185 2.52255C12.6736 2.37774 12.4773 2.29627 12.2725 2.29602H1.99125C1.78645 2.29627 1.5901 2.37774 1.44528 2.52255C1.30047 2.66737 1.219 2.86372 1.21875 3.06852V10.441C1.21875 10.5073 1.19241 10.5709 1.14553 10.6178C1.09864 10.6647 1.03505 10.691 0.96875 10.691Z" fill="#757575"/>
<path d="M12.8703 11.7135H1.98156C1.64677 11.7131 1.32581 11.5799 1.08908 11.3432C0.852342 11.1064 0.719163 10.7855 0.71875 10.4507C0.718747 10.4347 0.720317 10.4188 0.723437 10.4032L1.86688 4.49693C1.8739 4.16655 2.00999 3.85205 2.24601 3.62076C2.48204 3.38946 2.79923 3.25977 3.12969 3.25943H14.0184C14.3533 3.25977 14.6743 3.39292 14.911 3.62967C15.1478 3.86642 15.2809 4.18743 15.2812 4.52225C15.2813 4.5382 15.2797 4.55411 15.2766 4.56975L14.1331 10.476C14.1261 10.8064 13.99 11.1209 13.754 11.3522C13.518 11.5835 13.2008 11.7132 12.8703 11.7135ZM1.21875 10.4729C1.22476 10.6712 1.3077 10.8594 1.45001 10.9976C1.59233 11.1358 1.78285 11.2133 1.98125 11.2135H12.8703C13.0726 11.2132 13.2665 11.1328 13.4095 10.9898C13.5526 10.8468 13.6331 10.6529 13.6334 10.4507C13.6333 10.4347 13.6348 10.4188 13.6378 10.4032L14.7812 4.50006C14.7752 4.30181 14.6922 4.1137 14.5499 3.97553C14.4076 3.83736 14.2171 3.75998 14.0188 3.75975H3.12969C2.92742 3.75999 2.73351 3.84043 2.59046 3.98342C2.44741 4.12642 2.36689 4.3203 2.36656 4.52256C2.36667 4.5385 2.36521 4.55441 2.36219 4.57006L1.21875 10.4729ZM8.66 2.296H1.99125C1.92495 2.296 1.86136 2.26966 1.81447 2.22277C1.76759 2.17589 1.74125 2.1123 1.74125 2.046V1.20225C1.74183 0.959423 1.83861 0.726724 2.0104 0.555109C2.18219 0.383495 2.41499 0.286951 2.65781 0.286621H6.92125C6.98169 0.286936 7.03998 0.309139 7.08531 0.349121L8.82375 1.8585C8.86173 1.89199 8.88865 1.93624 8.90093 1.98537C8.91321 2.0345 8.91029 2.0862 8.89253 2.13364C8.87478 2.18107 8.84304 2.22199 8.80152 2.25098C8.75999 2.27997 8.71064 2.29567 8.66 2.296ZM2.24125 1.796H7.99125L6.82875 0.786621H2.65781C2.54738 0.786786 2.44153 0.830727 2.36344 0.908812C2.28536 0.986897 2.24142 1.09276 2.24125 1.20318V1.796Z" fill="#757575"/>
</svg>
