<svg width="25" height="24" viewBox="0 0 25 24" fill="none" xmlns="http://www.w3.org/2000/svg">
<path d="M21.3648 17.1427C22.3364 15.5597 22.8496 13.738 22.8471 11.8806C22.8496 10.023 22.3365 8.20105 21.3648 6.61797L21.3593 6.60914C20.4579 5.1398 19.1946 3.92619 17.6904 3.08428C16.1861 2.24237 14.4911 1.80029 12.7672 1.80029C11.0434 1.80029 9.34835 2.24237 7.84409 3.08428C6.33983 3.92619 5.0766 5.1398 4.17513 6.60914L4.16969 6.61797C3.20042 8.20212 2.6875 10.0232 2.6875 11.8803C2.6875 13.7375 3.20042 15.5585 4.16969 17.1427L4.17536 17.1517C5.07686 18.621 6.34009 19.8346 7.84434 20.6764C9.3486 21.5183 11.0436 21.9603 12.7674 21.9603C14.4912 21.9603 16.1862 21.5182 17.6904 20.6763C19.1947 19.8344 20.4579 18.6208 21.3593 17.1515L21.3648 17.1427ZM14.0556 20.2325C13.8635 20.4179 13.6424 20.5706 13.401 20.6847C13.2029 20.7788 12.9864 20.8276 12.7671 20.8276C12.5478 20.8276 12.3313 20.7788 12.1332 20.6847C11.674 20.4501 11.2809 20.1042 10.9898 19.6785C10.3954 18.8195 9.95489 17.8636 9.68801 16.8537C10.7134 16.7905 11.7398 16.7584 12.7672 16.7572C13.7942 16.7572 14.8207 16.7893 15.8467 16.8537C15.6989 17.3729 15.5144 17.881 15.2944 18.374C15.0048 19.0674 14.5842 19.6984 14.0556 20.2325ZM3.83966 12.4466H7.90535C7.93184 13.5811 8.05483 14.7112 8.27298 15.8248C7.16156 15.9227 6.053 16.0571 4.94731 16.228C4.29977 15.0663 3.92125 13.7741 3.83966 12.4466ZM4.94731 7.53286C6.05255 7.70411 7.16148 7.8385 8.27411 7.93606C8.05558 9.04954 7.93236 10.1796 7.9058 11.314H3.83966C3.92128 9.98664 4.2998 8.69449 4.94731 7.53286ZM11.4788 3.52811C11.6709 3.34273 11.8921 3.19001 12.1334 3.07599C12.3315 2.98188 12.5481 2.93305 12.7673 2.93305C12.9866 2.93305 13.2032 2.98188 13.4012 3.07599C13.8605 3.31055 14.2536 3.65648 14.5447 4.08216C15.1391 4.94119 15.5796 5.89704 15.8464 6.90701C14.8211 6.97013 13.7947 7.00229 12.7672 7.0035C11.7402 7.0035 10.7137 6.97134 9.68778 6.90701C9.83553 6.38775 10.0201 5.87968 10.24 5.38665C10.5296 4.69326 10.9503 4.06223 11.4788 3.52811ZM21.6948 11.314H17.6291C17.6026 10.1796 17.4796 9.04943 17.2615 7.93583C18.3729 7.83797 19.4815 7.70358 20.5871 7.53264C21.2347 8.69433 21.6132 9.98657 21.6948 11.314ZM9.41212 15.7367C9.19065 14.6532 9.06558 13.5522 9.03837 12.4466H16.4963C16.4694 13.5523 16.3445 14.6533 16.1232 15.7369C15.0058 15.6636 13.8871 15.6261 12.7672 15.6246C11.6483 15.6246 10.5299 15.662 9.41212 15.7367ZM16.1223 8.02394C16.3438 9.10746 16.4689 10.2085 16.4961 11.314H9.03837C9.06533 10.2084 9.19017 9.10733 9.41144 8.02372C10.5289 8.09711 11.6476 8.13456 12.7675 8.13607C13.8864 8.13607 15.0048 8.09862 16.1226 8.02372L16.1223 8.02394ZM17.6287 12.4466H21.6948C21.6132 13.774 21.2347 15.0662 20.5871 16.2278C19.4818 16.0566 18.3728 15.9222 17.2603 15.8246C17.4789 14.7111 17.6021 13.581 17.6287 12.4466ZM19.9081 6.49045C18.9416 6.62983 17.9724 6.74022 17.0003 6.82161C16.8256 6.17107 16.6003 5.5352 16.3264 4.91981C16.0763 4.35354 15.7617 3.81806 15.3887 3.32402C17.1912 3.87686 18.7729 4.98508 19.9081 6.49045ZM6.44072 5.55359C7.47473 4.51858 8.74686 3.75302 10.1456 3.32402C10.1243 3.35166 10.1025 3.37793 10.0817 3.40579C9.36273 4.44071 8.83903 5.59835 8.53642 6.82161C7.56422 6.73931 6.59429 6.62892 5.62663 6.49045C5.87616 6.15984 6.14817 5.84682 6.44072 5.55359ZM5.62663 17.2702C6.59293 17.1308 7.56218 17.0204 8.53438 16.939C8.70907 17.5896 8.93438 18.2255 9.20825 18.8409C9.45835 19.4071 9.77302 19.9426 10.146 20.4366C8.34351 19.8838 6.76176 18.7756 5.62663 17.2702ZM19.0942 18.2071C18.0602 19.2421 16.7881 20.0076 15.3893 20.4366C15.4106 20.409 15.4324 20.3827 15.4532 20.3549C16.1722 19.3199 16.6959 18.1623 16.9985 16.939C17.9707 17.0213 18.9406 17.1317 19.9083 17.2702C19.6588 17.6008 19.3867 17.9138 19.0942 18.2071Z" fill="#F8F8F7"/>
</svg>
