<svg width="17" height="17" viewBox="0 0 17 17" fill="none" xmlns="http://www.w3.org/2000/svg">
<path d="M11.6032 0.158203H4.93656C2.2949 0.158203 0.144897 2.3082 0.144897 4.94987V11.6165C0.144897 14.2582 2.2949 16.4082 4.93656 16.4082H11.6032C14.2449 16.4082 16.3949 14.2582 16.3949 11.6165V4.94987C16.3949 2.3082 14.2449 0.158203 11.6032 0.158203ZM15.1449 11.6165C15.1427 12.5552 14.7689 13.4547 14.1051 14.1184C13.4414 14.7822 12.5419 15.156 11.6032 15.1582H4.93656C3.99793 15.156 3.09837 14.7822 2.43466 14.1184C1.77094 13.4547 1.3971 12.5552 1.3949 11.6165V4.94987C1.3971 4.01124 1.77094 3.11168 2.43466 2.44796C3.09837 1.78425 3.99793 1.4104 4.93656 1.4082H11.6032C12.5419 1.4104 13.4414 1.78425 14.1051 2.44796C14.7689 3.11168 15.1427 4.01124 15.1449 4.94987V11.6165Z" fill="#2D2D2D"/>
<path d="M12.9532 2.46631C12.3282 2.46631 11.8115 2.97464 11.8115 3.60798C11.8115 4.24131 12.3199 4.74964 12.9532 4.74964C13.5865 4.74964 14.0949 4.24131 14.0949 3.60798C14.0949 2.97464 13.5865 2.46631 12.9532 2.46631ZM12.8449 3.60798C12.8449 3.54964 12.8949 3.49964 12.9532 3.49964C13.0115 3.49964 13.0615 3.54964 13.0615 3.60798C13.0615 3.73298 12.8365 3.73298 12.8365 3.60798H12.8449ZM8.26986 4.32464C6.08652 4.32464 4.31152 6.09964 4.31152 8.28298C4.31152 10.4663 6.08652 12.2413 8.26986 12.2413C10.4532 12.2413 12.2282 10.4663 12.2282 8.28298C12.2282 6.09964 10.4532 4.32464 8.26986 4.32464ZM8.26986 10.9913C6.77819 10.9913 5.56152 9.77464 5.56152 8.28298C5.56152 6.79131 6.77819 5.57464 8.26986 5.57464C9.76152 5.57464 10.9782 6.79131 10.9782 8.28298C10.9782 9.77464 9.76152 10.9913 8.26986 10.9913Z" fill="#2D2D2D"/>
</svg>
