<svg width="16" height="16" viewBox="0 0 16 16" fill="none" xmlns="http://www.w3.org/2000/svg">
<g clip-path="url(#clip0_68_1395)">
<path d="M14.492 1.50803C12.4813 -0.502691 9.20956 -0.50266 7.19884 1.50803C5.82553 2.88134 5.34866 4.90568 5.94306 6.74187L0.137344 12.5476C0.093802 12.5911 0.059262 12.6428 0.0356962 12.6997C0.0121305 12.7566 8.34021e-07 12.8176 0 12.8791L0 15.5312C0 15.7901 0.209906 16 0.468812 16H3.12087C3.24525 16 3.36444 15.9506 3.45241 15.8627L4.11553 15.1995C4.16553 15.1495 4.20357 15.0889 4.2268 15.0221C4.25003 14.9553 4.25786 14.8841 4.24969 14.8139L4.16694 14.1019L5.15394 14.0089C5.26259 13.9986 5.36426 13.9508 5.44143 13.8736C5.51861 13.7965 5.56644 13.6948 5.57669 13.5862L5.66978 12.599L6.38181 12.6818C6.44751 12.6894 6.51407 12.6831 6.57714 12.6631C6.6402 12.6432 6.69834 12.6102 6.74773 12.5662C6.79712 12.5222 6.83665 12.4683 6.86372 12.408C6.89078 12.3476 6.90478 12.2822 6.90478 12.2161V11.343H7.76197C7.88538 11.343 8.00378 11.2944 8.09156 11.2076L9.25631 10.0563C11.0929 10.6517 13.1183 10.1749 14.492 8.80112C16.5027 6.79043 16.5027 3.51871 14.492 1.50803ZM13.829 8.13815C12.6457 9.32143 10.8707 9.69078 9.307 9.07922C9.22256 9.04619 9.13034 9.03835 9.04154 9.05667C8.95273 9.07498 8.87114 9.11866 8.80666 9.1824L7.56938 10.4054H6.43594C6.17703 10.4054 5.96712 10.6153 5.96712 10.8742V11.6896L5.30212 11.6123C5.24012 11.6051 5.1773 11.6104 5.11735 11.6278C5.0574 11.6452 5.00153 11.6744 4.95301 11.7136C4.9045 11.7529 4.86431 11.8015 4.83481 11.8565C4.80531 11.9115 4.78709 11.9719 4.78122 12.034L4.67956 13.1118L3.60188 13.2133C3.53972 13.2192 3.47937 13.2374 3.42435 13.2669C3.36933 13.2964 3.32076 13.3366 3.28148 13.3851C3.2422 13.4336 3.213 13.4895 3.1956 13.5495C3.17821 13.6094 3.17295 13.6722 3.18016 13.7342L3.29209 14.6969L2.92666 15.0624H0.937594V13.0734L6.81563 7.19534C6.88007 7.1309 6.92434 7.04907 6.94301 6.95986C6.96168 6.87065 6.95395 6.77794 6.92075 6.69306C6.30912 5.12937 6.67853 3.35443 7.86181 2.17109C9.507 0.525965 12.1838 0.525965 13.8289 2.17109C15.4741 3.81618 15.4741 6.49303 13.829 8.13815Z" fill="#2D2D2D"/>
<path d="M13.1659 2.83414C12.6176 2.28574 11.7253 2.28577 11.1769 2.83414C10.6285 3.38252 10.6285 4.2748 11.1769 4.82318C11.7253 5.37155 12.6176 5.37161 13.1659 4.82318C13.7143 4.2748 13.7143 3.38252 13.1659 2.83414ZM12.5029 4.16018C12.3202 4.34296 12.0228 4.34299 11.8399 4.16018C11.6572 3.97739 11.6572 3.67999 11.8399 3.49718C12.0232 3.31393 12.3197 3.31393 12.5029 3.49718C12.6862 3.68043 12.6862 3.97693 12.5029 4.16018Z" fill="#2D2D2D"/>
</g>
<defs>
<clipPath id="clip0_68_1395">
<rect width="16" height="16" fill="white"/>
</clipPath>
</defs>
</svg>
