<svg width="12" height="13" viewBox="0 0 12 13" fill="none" xmlns="http://www.w3.org/2000/svg">
<g clip-path="url(#clip0_4_337)">
<path d="M9.58891 1.59739C8.63031 0.63877 7.35576 0.11084 6.00008 0.11084C4.64441 0.11084 3.36983 0.63877 2.41123 1.59739C1.45261 2.55603 0.924683 3.83057 0.924683 5.18622C0.924683 7.92869 3.51777 10.2097 4.91087 11.4352C5.10446 11.6055 5.27164 11.7526 5.40484 11.877C5.57171 12.0329 5.78591 12.1108 6.00006 12.1108C6.21426 12.1108 6.4284 12.0329 6.5953 11.877C6.7285 11.7525 6.89568 11.6055 7.08927 11.4352C8.48238 10.2097 11.0755 7.92869 11.0755 5.18622C11.0754 3.83057 10.5475 2.55603 9.58891 1.59739ZM6.62497 10.9074C6.42714 11.0815 6.2563 11.2318 6.11544 11.3633C6.05073 11.4237 5.94939 11.4237 5.88465 11.3633C5.74382 11.2317 5.57296 11.0814 5.37512 10.9074C4.06543 9.75534 1.62757 7.61083 1.62757 5.18624C1.62757 2.77527 3.58904 0.813802 6.00004 0.813802C8.41101 0.813802 10.3725 2.77527 10.3725 5.18624C10.3725 7.61083 7.93466 9.75534 6.62497 10.9074Z" fill="#2D2D2D"/>
<path d="M6.0001 2.75781C4.76679 2.75781 3.76343 3.76115 3.76343 4.99446C3.76343 6.22776 4.76679 7.2311 6.0001 7.2311C7.2334 7.2311 8.23674 6.22776 8.23674 4.99446C8.23674 3.76115 7.2334 2.75781 6.0001 2.75781ZM6.0001 6.52814C5.1544 6.52814 4.46637 5.84011 4.46637 4.99443C4.46637 4.14876 5.1544 3.46073 6.0001 3.46073C6.84579 3.46073 7.5338 4.14876 7.5338 4.99443C7.5338 5.84011 6.84579 6.52814 6.0001 6.52814Z" fill="#2D2D2D"/>
</g>
<defs>
<clipPath id="clip0_4_337">
<rect width="12" height="12" fill="white" transform="translate(0 0.11084)"/>
</clipPath>
</defs>
</svg>
