<svg width="32" height="32" viewBox="0 0 32 32" fill="none" xmlns="http://www.w3.org/2000/svg">
<path d="M16.0165 6.2707L16.35 6.56939L16.6836 6.27078C18.0764 5.02403 19.8937 4.35807 21.7623 4.40976C23.6308 4.46145 25.4086 5.22686 26.7303 6.54871L26.7304 6.54875C28.051 7.86915 28.8165 9.64468 28.8699 11.5114C28.9233 13.3734 28.2641 15.1855 27.0273 16.578L16.3476 27.2728L5.67032 16.5779C4.43196 15.1847 3.77215 13.3711 3.82606 11.5075C3.8801 9.63927 4.64728 7.86265 5.97009 6.54233C7.29291 5.22201 9.07098 4.45819 10.9393 4.40767C12.8076 4.35716 14.6243 5.02379 16.0165 6.2707Z" stroke="#F8F8F7"/>
</svg>
