<svg width="10" height="5" viewBox="0 0 10 5" fill="none" xmlns="http://www.w3.org/2000/svg">
<mask id="mask0_3652_456" style="mask-type:alpha" maskUnits="userSpaceOnUse" x="0" y="0" width="10" height="5">
<rect width="10" height="4.28571" fill="#D9D9D9"/>
</mask>
<g mask="url(#mask0_3652_456)">
<path d="M-59.5974 17.1499L-57.8943 16.2118C-57.0064 17.4682 -54.9961 18.3114 -52.9188 18.3114C-50.3501 18.3114 -48.2561 17.2728 -48.2561 15.8209C-48.2561 14.168 -51.0649 13.3751 -53.5722 12.6659C-55.9789 11.9623 -58.6704 11.08 -58.6704 8.80726C-58.6704 6.53453 -55.9566 4.8593 -52.5112 4.8593C-49.6019 4.8593 -47.6195 6.05429 -46.888 7.50616L-48.552 8.34377C-49.1831 7.23812 -50.7689 6.48986 -52.5335 6.48986C-54.6387 6.48986 -56.4424 7.5285 -56.4424 8.84077C-56.4424 10.2647 -54.2869 10.784 -51.7573 11.51C-48.8145 12.4034 -46.028 13.4253 -46.028 15.7874C-46.028 18.3226 -49.1551 19.9699 -52.93 19.9699C-56.1576 19.9699 -58.6649 18.7135 -59.5974 17.1443M-25.6907 5.0715H-23.4738V19.7689H-25.6907V5.0715ZM5.66405 4.84255H5.41835L-3.65024 19.7689H-1.25467L0.180454 17.3509H10.8908L12.3259 19.7689H14.7382L5.65845 4.84255H5.66405ZM1.05157 15.9102L5.55236 8.34936L10.042 15.9102H1.04599H1.05157ZM2.92784 3.10031H1.09067L4.89902 0.436676H6.17778L10.0085 3.10031H8.16015L5.5468 1.30222L2.92784 3.10031ZM50.3313 5.0324V19.9978H50.2197L36.7731 8.80726V19.7856H34.5562V4.84255H34.6791L48.1144 16.0219V5.0324H50.3313ZM70.8753 12.4258C70.8753 8.29352 75.4486 4.8593 80.949 4.8593C83.4674 4.87605 85.9133 5.74159 87.689 7.08178L86.3991 8.38287C84.9863 7.29955 83.0151 6.54012 80.8596 6.54012C76.9173 6.54012 73.1089 9.09205 73.1089 12.4202C73.1089 15.7483 76.8837 18.2835 80.8987 18.2835C83.1156 18.2835 84.9975 17.5017 86.4102 16.4575L87.689 17.7865C86.0584 18.9983 83.8583 19.9475 80.9601 19.9475C75.51 19.9475 70.8697 16.5859 70.8697 12.4146M122.176 5.05474V19.7521H119.971V13.2131H110.031V19.7521H107.814V5.05474H110.031V11.5714H119.971V5.05474H122.176ZM145.97 6.68529V11.3369H154.039V12.9953H145.97V18.0992H155.279V19.7521H143.753V5.05474H155.279V6.68529H145.97ZM174.997 17.1276L176.7 16.1895C177.588 17.4459 179.598 18.2891 181.675 18.2891C184.244 18.2891 186.338 17.2504 186.338 15.7986C186.338 14.1457 183.523 13.3527 181.022 12.6435C178.609 11.9399 175.923 11.0577 175.923 8.78492C175.923 6.51219 178.637 4.83696 182.083 4.83696C184.992 4.83696 186.974 6.03197 187.706 7.48383L186.042 8.32145C185.411 7.2158 183.825 6.46752 182.06 6.46752C179.955 6.46752 178.157 7.50616 178.157 8.81843C178.157 10.2424 180.313 10.7617 182.842 11.4876C185.785 12.3811 188.572 13.403 188.572 15.7651C188.572 18.3002 185.444 19.9475 181.67 19.9475C178.447 19.9475 175.94 18.6911 175.002 17.122" fill="#F8F8F7"/>
</g>
</svg>
