<svg width="24" height="25" viewBox="0 0 24 25" fill="none" xmlns="http://www.w3.org/2000/svg">
<g clip-path="url(#clip0_85_6274)">
<path d="M23.5827 16.9594L17.4529 14.2309C17.3215 14.1725 17.1754 14.1557 17.0343 14.1828C16.8931 14.2099 16.7636 14.2797 16.6633 14.3827C16.2561 14.8007 15.2948 15.7811 14.7065 16.3587C13.5362 15.5374 12.2858 14.4574 11.061 13.2084L11.0511 13.1986C9.82087 11.9921 8.78029 10.7856 7.9521 9.60547C8.66179 8.88898 9.91166 7.65538 9.92723 7.64C10.0289 7.53964 10.0976 7.41067 10.1242 7.27027C10.1258 7.12988 10.1339 6.98472 10.0759 6.85414L7.36012 0.737141C7.29237 0.584444 7.17244 0.460867 7.02185 0.388559C6.87126 0.316252 6.69983 0.29994 6.53831 0.342547L1.82024 1.58567C0.388352 1.94998 -0.310554 3.44923 0.131664 4.88445C1.49634 9.31452 3.46073 13.0912 7.29566 16.9786L7.29951 16.9824L7.32402 17.0069L7.32787 17.0108C12.395 22.01 16.9662 23.4184 19.422 24.175C20.8429 24.6126 22.3524 23.9313 22.7208 22.4873L23.9762 17.783C24.0652 17.449 23.8984 17.0998 23.5827 16.9594ZM21.3609 22.1288L21.3587 22.1376C21.193 22.7923 20.4895 23.0324 19.836 22.831C17.3311 22.0592 13.1389 20.7678 8.3174 16.0118L8.29485 15.9891C3.53849 11.1671 2.14527 6.64428 1.47548 4.4705C1.27406 3.81622 1.51462 3.11328 2.1689 2.94795C2.17106 2.94739 2.17326 2.94683 2.17546 2.94608L6.31785 1.85497L8.59368 6.98084C8.01159 7.55689 6.8721 8.68738 6.53648 9.04222C6.42759 9.15737 6.3608 9.30594 6.34694 9.46381C6.33308 9.62169 6.37296 9.77962 6.46012 9.91198C7.38777 11.3215 8.59954 12.7635 10.0616 14.1978C11.5166 15.6809 13.0153 16.9429 14.3957 17.8472C14.5253 17.9321 14.6793 17.9718 14.8337 17.9602C14.9882 17.9486 15.1345 17.8864 15.2499 17.7831C15.6207 17.4514 16.7518 16.3027 17.328 15.7144L22.4627 18.0001L21.3609 22.1288ZM12.0002 1.71289C17.8414 1.71289 22.5937 6.44417 22.5937 12.2596C22.5937 12.6477 22.9085 12.9627 23.2967 12.9627C23.685 12.9627 23.9998 12.6477 23.9998 12.2596C23.9998 5.66872 18.6169 0.306641 12.0002 0.306641C11.6118 0.306641 11.2971 0.621406 11.2971 1.00977C11.2971 1.39812 11.6118 1.71289 12.0002 1.71289Z" fill="#2D2D2D"/>
<path d="M12.0001 4.52539C16.2646 4.52539 19.7343 7.99489 19.7343 12.2596C19.7343 12.6478 20.0491 12.9627 20.4374 12.9627C20.8256 12.9627 21.1406 12.6478 21.1406 12.2596C21.1406 7.21944 17.0401 3.11914 12.0001 3.11914C11.6118 3.11914 11.297 3.43391 11.297 3.82227C11.297 4.21044 11.6118 4.52539 12.0001 4.52539Z" fill="#2D2D2D"/>
<path d="M12.0001 7.33789C14.7139 7.33789 16.9218 9.5458 16.9218 12.2598C16.9218 12.6479 17.2366 12.9629 17.6249 12.9629C18.0133 12.9629 18.3281 12.6479 18.3281 12.2598C18.3281 8.77053 15.4894 5.93164 12.0001 5.93164C11.6118 5.93164 11.297 6.24659 11.297 6.63477C11.297 7.02312 11.6118 7.33789 12.0001 7.33789Z" fill="#2D2D2D"/>
</g>
<defs>
<clipPath id="clip0_85_6274">
<rect width="24" height="23.9531" fill="white" transform="translate(0 0.283203)"/>
</clipPath>
</defs>
</svg>
