<svg width="40" height="30" viewBox="0 0 40 30" fill="none" xmlns="http://www.w3.org/2000/svg">
<path d="M39.5567 9.61122L28.773 0.929112C28.5617 0.759008 28.2986 0.66626 28.0274 0.66626C27.7562 0.66626 27.4931 0.759008 27.2819 0.929112L24.0138 3.55997L20.7461 0.929112C20.5348 0.759008 20.2718 0.66626 20.0005 0.66626C19.7293 0.66626 19.4663 0.759008 19.255 0.929112L15.9869 3.55997L12.7191 0.929112C12.5079 0.759008 12.2448 0.66626 11.9736 0.66626C11.7024 0.66626 11.4393 0.759008 11.228 0.929112L0.443359 9.61122C0.304948 9.72264 0.193272 9.86367 0.116546 10.0239C0.0398201 10.1842 -4.92039e-06 10.3596 4.55965e-10 10.5373L4.55965e-10 28.1448C4.55965e-10 28.8014 0.532344 29.3337 1.18891 29.3337H8.59328C9.24984 29.3337 9.78219 28.8014 9.78219 28.1448V22.8396C9.78219 21.6315 10.765 20.6487 11.973 20.6487C13.1811 20.6487 14.164 21.6315 14.164 22.8396V28.1448C14.164 28.8014 14.6963 29.3337 15.3529 29.3337H38.8111C39.4677 29.3337 40 28.8014 40 28.1448V10.5373C40 10.3596 39.9602 10.1842 39.8835 10.024C39.8068 9.8637 39.6951 9.72266 39.5567 9.61122ZM21.5684 26.9558H18.4316L16.5417 26.9559V22.8396C16.5417 20.3204 14.4922 18.2709 11.973 18.2709C9.45367 18.2709 7.4043 20.3204 7.4043 22.8396V26.9559H2.37781V11.1065L11.9735 3.38146L21.5684 11.1064V26.9558ZM29.5953 26.9559H23.9462V10.5373C23.9462 10.1774 23.7832 9.83692 23.5029 9.61122L17.8827 5.08638L20.0005 3.38153L29.5953 11.1065V26.9559ZM37.6222 26.9559H31.973V10.5373C31.973 10.1774 31.81 9.837 31.5298 9.61122L25.9096 5.0863L28.0273 3.38146L37.6222 11.1064V26.9559Z" fill="#2D2D2D"/>
</svg>
