<svg width="21" height="21" viewBox="0 0 21 21" fill="none" xmlns="http://www.w3.org/2000/svg">
<g clip-path="url(#clip0_3721_698)">
<path d="M19.4199 4.7332C18.8774 3.7682 18.2886 3.5907 17.0899 3.5232C15.8924 3.44195 12.8811 3.4082 10.2724 3.4082C7.65865 3.4082 4.64615 3.44195 3.4499 3.52195C2.25365 3.5907 1.66365 3.76695 1.11615 4.7332C0.557397 5.69695 0.269897 7.35695 0.269897 10.2795V10.2895C0.269897 13.1995 0.557397 14.872 1.11615 15.8257C1.66365 16.7907 2.2524 16.9657 3.44865 17.047C4.64615 17.117 7.65865 17.1582 10.2724 17.1582C12.8811 17.1582 15.8924 17.117 17.0911 17.0482C18.2899 16.967 18.8786 16.792 19.4211 15.827C19.9849 14.8732 20.2699 13.2007 20.2699 10.2907V10.2807C20.2699 7.35695 19.9849 5.69695 19.4199 4.7332ZM7.7699 14.0332V6.5332L14.0199 10.2832L7.7699 14.0332Z" fill="#2D2D2D"/>
</g>
<defs>
<clipPath id="clip0_3721_698">
<rect width="20" height="20" fill="white" transform="translate(0.269897 0.283203)"/>
</clipPath>
</defs>
</svg>
