<svg width="441" height="580" viewBox="0 0 441 580" fill="none" xmlns="http://www.w3.org/2000/svg">
<path opacity="0.04" d="M804 67.3064C804 57.2257 801.783 47.3367 797.349 37.8694L796.805 36.6812L483.077 139.596C483.077 139.251 483.116 138.906 483.116 138.561C483.116 128.02 481.054 117.786 477.009 108.127H491.789V118.706H494.706V108.127H506.647C507.386 115.371 513.532 121.082 521.077 121.082V118.208C515.126 118.208 510.264 113.8 509.564 108.165H523.761V105.291H509.564C510.303 99.618 515.165 95.2485 521.077 95.2485V92.3737C513.532 92.3737 507.386 98.0465 506.647 105.329H494.706V94.7502H491.789V105.329H455.811C464.952 96.1684 471.447 84.8995 474.831 72.6725C475.259 72.6725 475.687 72.7874 476.115 72.7874C484.438 72.7874 491.206 66.1182 491.206 57.9157C491.206 49.7132 484.827 43.5038 476.854 43.1205C475.142 30.4718 470.241 18.5514 462.307 8.20248L461.14 6.66927L459.973 8.20248C456.006 13.3769 451.416 17.8615 446.399 21.7327L441.42 16.8266C446.243 13.262 450.638 8.96906 454.411 4.0629L452.077 2.33809C440.098 17.9381 421.856 26.8689 402.02 26.8689C382.183 26.8689 363.941 17.9381 351.961 2.33809L349.628 4.0629C353.478 9.04572 357.913 13.3769 362.852 17.0182L357.874 21.9244C352.739 18.0531 348.111 13.4536 344.066 8.24079L342.899 6.70764L341.732 8.24079C333.798 18.5514 328.897 30.5102 327.185 43.1588C319.212 43.5421 312.833 49.9815 312.833 57.954C312.833 65.9265 319.601 72.8258 327.924 72.8258C328.352 72.8258 328.78 72.7491 329.208 72.7108C332.592 84.9379 339.126 96.2067 348.228 105.367H312.25V94.7885H309.333V105.367H297.508C296.769 98.1232 290.624 92.4121 283.078 92.4121V95.2868C289.029 95.2868 293.852 99.6947 294.591 105.329H280.278V108.204H294.591C293.852 113.877 288.99 118.246 283.078 118.246V121.121C290.624 121.121 296.769 115.448 297.508 108.165H309.333V118.744H312.25V108.165H327.03C322.985 117.824 320.923 128.058 320.923 138.599C320.923 138.944 320.962 139.289 320.962 139.672L7.19561 36.7195L6.65102 37.9077C2.25588 47.3751 0 57.264 0 67.3447C0 103.796 29.0935 134.958 69.8555 146.993C72.1892 148.526 120.653 180.493 175.572 180.493C186.074 180.493 196.77 179.343 207.427 176.583C270.749 160.178 325.007 174.82 330.569 176.43C341.888 197.128 362.191 212.345 386.306 217.021C343.716 224.227 310.966 260.141 309.41 303.76L300.309 294.791L288.213 306.712L300.309 318.632L309.371 309.701C309.371 309.97 309.371 310.2 309.371 310.468H309.294C309.216 311.388 305.949 361.983 320.107 424.191H319.951C320.029 424.498 320.184 424.728 320.301 424.958C331.931 475.591 355.112 533.775 400.969 578.965L402.02 580L403.07 578.965C448.11 534.58 471.292 477.737 483.116 427.756C483.232 427.564 483.349 427.372 483.466 427.181L483.271 427.066C498.207 363.554 494.823 311.349 494.745 310.43H494.668C494.668 310.046 494.668 309.663 494.668 309.241L504.469 318.9L516.565 306.98L504.469 295.059L494.668 304.718C493.578 260.64 460.673 224.227 417.733 216.944C441.731 212.268 461.996 197.166 473.314 176.583L473.625 176.507C474.17 176.315 530.723 159.297 597.273 176.507C607.93 179.266 618.665 180.416 629.128 180.416C685.059 180.416 734.378 147.223 734.961 146.84L734.845 146.687C775.179 134.459 803.922 103.489 803.922 67.268M472.186 172.176L431.424 132.62C432.552 131.355 433.602 130.09 434.575 128.71L434.03 129.477L457.484 145.613L459.156 143.237L435.703 127.1L434.808 128.365C435.78 126.909 436.636 125.414 437.414 123.842L479.887 142.47C479.343 153.087 476.62 163.13 472.147 172.214M471.719 457.269C464.446 475.399 453.439 496.634 438.348 509.436C415.633 528.715 406.531 557.386 403.381 570.648V496.979L428.351 455.583C450.444 452.057 468.763 444.199 478.526 433.735C476.542 441.439 474.325 449.297 471.758 457.231M325.046 432.47C334.264 443.279 352.506 451.558 374.91 455.315L400.503 497.745V571.031C397.469 557.961 388.406 528.83 365.419 509.321C350.678 496.825 339.826 476.281 332.553 458.458C329.675 449.68 327.185 440.979 325.046 432.432M378.644 455.889C385.606 456.886 392.957 457.461 400.503 457.538V492.111L378.644 455.889ZM403.42 491.306V457.576C410.732 457.538 417.85 457.001 424.656 456.081L403.42 491.306ZM401.942 395.367C375.532 395.367 351.767 384.06 335.314 366.122C338.232 337.413 359.235 314.799 386.695 308.705C387.628 316.026 393.89 321.737 401.592 321.737C409.293 321.737 415.516 316.064 416.488 308.781C443.91 315.067 465.302 338.218 467.947 366.735C451.533 384.329 428.001 395.367 401.903 395.367M416.566 305.868C416.061 298.739 410.499 293.028 403.342 292.185V249.716H400.425V292.108C392.996 292.645 387.123 298.471 386.578 305.792C366.547 310.046 349.822 322.695 340.332 340.058C334.692 329.939 331.658 318.517 331.658 306.903C331.658 268.766 363.163 237.719 401.864 237.719C440.565 237.719 472.069 268.766 472.069 306.903C472.069 318.824 468.919 330.476 463.007 340.786C453.517 323.27 436.558 310.276 416.566 305.868ZM328.78 306.903C328.78 319.667 332.242 332.201 338.776 343.163C337.609 345.616 336.598 348.146 335.703 350.752C326.796 337.758 322.051 322.657 322.051 306.903C322.051 282.832 333.097 261.291 350.445 246.841V255.81C337.104 268.881 328.819 286.934 328.819 306.903M464.641 343.891C471.447 332.737 475.064 319.974 475.064 306.903C475.064 286.934 466.78 268.842 453.4 255.772L453.244 246.649C470.708 261.1 481.832 282.717 481.832 306.903C481.832 322.963 476.931 338.295 467.713 351.442C466.858 348.874 465.846 346.344 464.679 343.891M390.545 171.792L395.291 145.077L394.318 144.885C396.341 145.268 398.402 145.498 400.542 145.575V215.488C386.189 215.219 372.77 211.118 361.296 204.181L387.823 143.007C389.806 143.773 391.829 144.387 393.968 144.808L392.451 144.54L387.706 171.256L390.584 171.754L390.545 171.792ZM403.42 145.575C404.82 145.537 406.181 145.383 407.543 145.23L413.921 171.907L416.761 171.256L410.46 144.77C412.054 144.425 413.571 143.965 415.088 143.467L439.942 205.905C429.091 211.846 416.683 215.334 403.459 215.564V145.652L403.42 145.575ZM323.957 142.432L366.43 123.804C367.208 125.375 368.064 126.909 369.036 128.365L368.142 127.1L344.883 143.237L346.555 145.575L369.775 129.438L369.27 128.71C370.32 130.205 371.487 131.623 372.732 132.965L331.892 172.635C327.263 163.436 324.463 153.241 323.918 142.432M365.264 104.218C365.964 84.8995 382.144 69.3761 401.942 69.3761C421.739 69.3761 437.842 84.8228 438.581 104.218H365.264ZM480.121 138.522C480.121 138.791 480.121 139.059 480.082 139.366L438.659 121.197C440.331 117.135 441.265 112.727 441.459 108.127H475.064L474.014 108.549C478.098 118.054 480.16 128.135 480.16 138.561M332.008 72.0592C338.309 70.2577 342.938 64.6233 342.938 57.839C342.938 50.3648 337.298 44.2321 330.025 43.1972C331.619 31.7367 335.937 20.8895 342.86 11.3838C357.29 29.2453 378.721 39.4409 401.981 39.4409C425.24 39.4409 446.671 29.2453 461.101 11.3838C468.024 20.8895 472.342 31.6983 473.936 43.1972C466.624 44.2321 461.023 50.3648 461.023 57.839C461.023 64.6233 465.652 70.2577 471.953 72.0592C468.413 84.6312 461.529 96.1684 451.727 105.252H441.576C441.42 83.8646 423.723 66.5398 401.981 66.5398C380.238 66.5398 362.697 83.788 362.424 105.252H352.234C342.432 96.2067 335.548 84.6312 332.008 72.0592ZM328.469 108.127H362.463C362.619 112.727 363.591 117.135 365.264 121.197L323.84 139.366C323.84 139.097 323.801 138.829 323.801 138.561C323.801 128.212 325.863 118.169 329.908 108.702L328.508 108.127H328.469ZM206.65 173.747C153.519 187.507 99.1825 160.792 79.2682 149.37C88.1751 151.286 97.51 152.321 107.156 152.321C148.19 152.321 185.957 133.501 203.771 104.256L321.04 142.739C321.585 153.509 324.307 163.705 328.819 172.942C316.1 169.646 265.187 158.607 206.611 173.747M333.253 175.395L374.793 135.073C376.31 136.491 377.943 137.832 379.694 138.982L378.41 138.139L362.58 161.75L364.991 163.321L380.861 139.711L379.966 139.136C381.6 140.209 383.311 141.129 385.061 141.934L358.69 202.724C348.111 195.786 339.359 186.396 333.253 175.395ZM300.231 314.531L292.258 306.673L300.231 298.816L308.205 306.673L300.231 314.531ZM312.172 306.52C312.327 276.776 327.458 250.521 350.484 234.576V243.2C331.425 258.148 319.173 281.184 319.173 307.018C319.173 324.113 324.54 340.48 334.614 354.355C333.798 357.268 333.214 360.296 332.786 363.362C319.912 348.031 312.172 328.406 312.172 307.018V306.865L312.328 306.712L312.172 306.558V306.52ZM400.464 398.319V454.778C362.541 454.395 330.375 441.593 322.946 423.961C313.767 383.754 311.9 348.337 311.744 328.214C321.39 367.924 357.368 397.629 400.425 398.319M480.237 426.606C470.669 443.088 439.398 454.548 403.342 454.816V398.357C446.399 397.706 482.416 368 492.023 328.253C491.867 348.797 489.961 385.325 480.237 426.606ZM504.352 299.161L512.326 307.018L504.352 314.876L496.379 307.018L504.352 299.161ZM491.673 307.018C491.673 328.713 483.699 348.606 470.514 364.014C470.125 360.948 469.541 357.958 468.763 355.045C479.187 341.016 484.71 324.42 484.71 307.018C484.71 281.069 472.342 257.957 453.128 243.008L452.972 234.307C476.348 250.291 491.712 276.93 491.712 307.018M442.431 204.411L417.772 142.47C419.95 141.512 422.05 140.4 423.995 139.097L423.023 139.711L438.853 163.321L441.303 161.75L425.473 138.139L424.112 139.021C426.018 137.756 427.768 136.299 429.402 134.728L470.825 174.935C464.213 187.086 454.333 197.205 442.393 204.372M597.934 173.747C538.036 158.224 486.15 170.182 474.909 173.134C479.46 163.82 482.221 153.547 482.805 142.7L600.034 104.256C617.848 133.501 655.615 152.321 696.65 152.321C706.762 152.321 716.525 151.171 725.821 149.101C706.335 160.37 651.531 187.622 597.973 173.785M414.038 11.9204L401.942 0L389.845 11.9204L401.942 23.8409L414.038 11.9204ZM401.942 4.0629L409.915 11.9204L401.942 19.7779L393.968 11.9204L401.942 4.0629Z" fill="#2D2D2D"/>
</svg>
