<svg width="203" height="17" viewBox="0 0 203 17" fill="none" xmlns="http://www.w3.org/2000/svg">
<path d="M0 13.9538L1.39309 13.1864C2.11933 14.2141 3.76363 14.9038 5.46275 14.9038C7.5638 14.9038 9.27661 14.0543 9.27661 12.8667C9.27661 11.5147 6.97916 10.8661 4.92835 10.2861C2.95975 9.71056 0.758208 8.98889 0.758208 7.12991C0.758208 5.27093 2.97802 3.90068 5.79617 3.90068C8.17584 3.90068 9.79731 4.87812 10.3957 6.06567L9.03454 6.7508C8.51841 5.84643 7.22124 5.2344 5.7779 5.2344C4.05595 5.2344 2.58065 6.08395 2.58065 7.15731C2.58065 8.32203 4.34371 8.74681 6.41279 9.34058C8.81987 10.0714 11.0991 10.9072 11.0991 12.8393C11.0991 14.9129 8.54125 16.2604 5.45361 16.2604C2.81359 16.2604 0.762774 15.2327 0 13.9492M27.7339 4.07424H29.5472V16.0959H27.7339V4.07424ZM53.3805 3.88698H53.1795L45.7619 16.0959H47.7213L48.8952 14.1182H57.6557L58.8295 16.0959H60.8027L53.3759 3.88698H53.3805ZM49.6077 12.9398L53.2891 6.75537L56.9614 12.9398H49.6032H49.6077ZM51.1424 2.46191H49.6397L52.7547 0.283203H53.8007L56.934 2.46191H55.4222L53.2846 0.991176L51.1424 2.46191ZM89.916 4.04227V16.2832H89.8247L78.8261 7.12991V16.1096H77.0128V3.88698H77.1133L88.1027 13.0311V4.04227H89.916ZM106.72 10.0896C106.72 6.70969 110.461 3.90068 114.96 3.90068C117.02 3.91438 119.02 4.62235 120.473 5.71855L119.418 6.78277C118.262 5.89668 116.65 5.2755 114.887 5.2755C111.662 5.2755 108.547 7.36285 108.547 10.0851C108.547 12.8073 111.635 14.881 114.919 14.881C116.732 14.881 118.271 14.2415 119.427 13.3874L120.473 14.4745C119.139 15.4656 117.339 16.2421 114.969 16.2421C110.511 16.2421 106.715 13.4924 106.715 10.0805M148.682 4.06054V16.0822H146.877V10.7337H138.747V16.0822H136.934V4.06054H138.747V9.39082H146.877V4.06054H148.682ZM168.144 5.39425V9.19899H174.744V10.5555H168.144V14.7302H175.758V16.0822H166.33V4.06054H175.758V5.39425H168.144ZM191.886 13.9355L193.279 13.1682C194.005 14.1958 195.649 14.8855 197.348 14.8855C199.449 14.8855 201.162 14.036 201.162 12.8484C201.162 11.4964 198.86 10.8479 196.814 10.2678C194.841 9.69228 192.644 8.97061 192.644 7.11164C192.644 5.25266 194.864 3.8824 197.682 3.8824C200.062 3.8824 201.683 4.85986 202.281 6.04741L200.92 6.73254C200.404 5.82817 199.107 5.21612 197.664 5.21612C195.942 5.21612 194.471 6.06568 194.471 7.13904C194.471 8.30375 196.234 8.72853 198.303 9.32231C200.71 10.0531 202.989 10.889 202.989 12.821C202.989 14.8947 200.431 16.2421 197.344 16.2421C194.708 16.2421 192.658 15.2144 191.89 13.9309" fill="#2D2D2D"/>
</svg>
